<mxfile host="65bd71144e">
    <diagram id="kCiUBcg4THfwcubQhVI1" name="Page-1">
        <mxGraphModel dx="1292" dy="729" grid="1" gridSize="10" guides="1" tooltips="1" connect="1" arrows="1" fold="1" page="1" pageScale="1" pageWidth="3300" pageHeight="2339" math="0" shadow="0">
            <root>
                <mxCell id="0"/>
                <mxCell id="1" parent="0"/>
                <mxCell id="2" value="#Aircraft" style="whiteSpace=wrap;html=1;fontSize=21;" parent="1" vertex="1">
                    <mxGeometry x="1000" y="380" width="160" height="60" as="geometry"/>
                </mxCell>
                <mxCell id="3" value="&lt;font style=&quot;font-size: 15px&quot;&gt;This class diagram is reactive!&lt;br&gt;Open in VSCode with the the Drawio plugin, select 'Code Link' then double click on items below&lt;/font&gt;" style="text;html=1;align=center;verticalAlign=middle;resizable=0;points=[];autosize=1;strokeColor=none;" parent="1" vertex="1">
                    <mxGeometry x="595" y="110" width="650" height="40" as="geometry"/>
                </mxCell>
                <mxCell id="5" value="#Mission" style="whiteSpace=wrap;html=1;fontSize=21;" vertex="1" parent="1">
                    <mxGeometry x="680" y="380" width="160" height="60" as="geometry"/>
                </mxCell>
                <mxCell id="6" value="#Specification" style="whiteSpace=wrap;html=1;fontSize=21;" vertex="1" parent="1">
                    <mxGeometry x="420" y="380" width="160" height="60" as="geometry"/>
                </mxCell>
                <mxCell id="9" value="#AVD_Model" style="whiteSpace=wrap;html=1;fontSize=21;" vertex="1" parent="1">
                    <mxGeometry x="840" y="250" width="160" height="60" as="geometry"/>
                </mxCell>
            </root>
        </mxGraphModel>
    </diagram>
</mxfile>